# xmcd
# 
# Track frame offsets:
#     150
#     29132
#     54457
#     74965
#     91027
#     108862
#     128057
#     147475
#     165915
# 
# Disc length: 2472
# 
# Revision: 6
# Processed by: cddbd v1.5.2PL0 Copyright (c) Steve Scherf et al.
# Submitted via: fre:ac v1.0.27
# 
DISCID=7d09a609
DTITLE=Quincy Jones - The Dude
DYEAR=1981
DGENRE=Jazz
TTITLE0=Ai No Corrida
TTITLE1=The Dude
TTITLE2=Just Once
TTITLE3=Betcha' Wouldn't Hurt Me
TTITLE4=Somethin' Special
TTITLE5=Razzamatazz
TTITLE6=One Hundred Ways
TTITLE7=Velas
TTITLE8=Turn On The Action
EXTD=YEAR: 1981
EXTT0=
EXTT1=
EXTT2=
EXTT3=
EXTT4=
EXTT5=
EXTT6=
EXTT7=
EXTT8=
PLAYORDER=
